HIERARCHY
ROOT hip
{
  OFFSET -0.419052 39.809 0.161344
  CHANNELS 6 Xposition Yposition Zposition Zrotation Xrotation Yrotation
  JOINT abdomen
  {
    OFFSET 0 7.2397 0
    CHANNELS 6 Xposition Yposition Zposition Zrotation Xrotation Yrotation
    JOINT chest
    {
      OFFSET 0 16.546 0
      CHANNELS 6 Xposition Yposition Zposition Zrotation Xrotation Yrotation
      JOINT neck
      {
        OFFSET 0 34.2149 0
        CHANNELS 6 Xposition Yposition Zposition Zrotation Xrotation Yrotation
        JOINT head
        {
          OFFSET 0 6.2923 0
          CHANNELS 6 Xposition Yposition Zposition Zrotation Xrotation Yrotation
          End Site
          {
            OFFSET 0 21.2161 0
          }
        }
      }
      JOINT lCollar
      {
        OFFSET 4.0639 26.6115 -1.1234
        CHANNELS 6 Xposition Yposition Zposition Zrotation Xrotation Yrotation
        JOINT lShldr
        {
          OFFSET 14.1772 0 0
          CHANNELS 6 Xposition Yposition Zposition Zrotation Xrotation Yrotation
          JOINT lForeArm
          {
            OFFSET 26.1234 0 0
            CHANNELS 6 Xposition Yposition Zposition Zrotation Xrotation Yrotation
            JOINT lHand
            {
              OFFSET 27.7188 0 0
              CHANNELS 6 Xposition Yposition Zposition Zrotation Xrotation Yrotation
              JOINT lThumb1
              {
                OFFSET 2.2979 -0.4685 1.8313
                CHANNELS 6 Xposition Yposition Zposition Zrotation Xrotation Yrotation
                JOINT lThumb2
                {
                  OFFSET 5.2953 0 0
                  CHANNELS 6 Xposition Yposition Zposition Zrotation Xrotation Yrotation
                  JOINT lThumb3
                  {
                    OFFSET 3.0181 0 0
                    CHANNELS 6 Xposition Yposition Zposition Zrotation Xrotation Yrotation
                    End Site
                    {
                      OFFSET 2.6294 0 0
                    }
                  }
                }
              }
              JOINT lIndex1
              {
                OFFSET 9.3793 0.2991 2.5924
                CHANNELS 6 Xposition Yposition Zposition Zrotation Xrotation Yrotation
                JOINT lIndex2
                {
                  OFFSET 4.3461 0 0
                  CHANNELS 6 Xposition Yposition Zposition Zrotation Xrotation Yrotation
                  JOINT lIndex3
                  {
                    OFFSET 2.1666 0 0
                    CHANNELS 6 Xposition Yposition Zposition Zrotation Xrotation Yrotation
                    End Site
                    {
                      OFFSET 2.2048 0 0
                    }
                  }
                }
              }
              JOINT lMid1
              {
                OFFSET 9.4769 0.8376 0.2947
                CHANNELS 6 Xposition Yposition Zposition Zrotation Xrotation Yrotation
                JOINT lMid2
                {
                  OFFSET 4.772 0 0
                  CHANNELS 6 Xposition Yposition Zposition Zrotation Xrotation Yrotation
                  JOINT lMid3
                  {
                    OFFSET 2.8722 0 0
                    CHANNELS 6 Xposition Yposition Zposition Zrotation Xrotation Yrotation
                    End Site
                    {
                      OFFSET 2.0959 0 0
                    }
                  }
                }
              }
              JOINT lRing1
              {
                OFFSET 8.6586 1.0176 -1.7016
                CHANNELS 6 Xposition Yposition Zposition Zrotation Xrotation Yrotation
                JOINT lRing2
                {
                  OFFSET 4.5461 0 0
                  CHANNELS 6 Xposition Yposition Zposition Zrotation Xrotation Yrotation
                  JOINT lRing3
                  {
                    OFFSET 2.506 0 0
                    CHANNELS 6 Xposition Yposition Zposition Zrotation Xrotation Yrotation
                    End Site
                    {
                      OFFSET 2.2023 0 0
                    }
                  }
                }
              }
              JOINT lPinky1
              {
                OFFSET 7.6901 0.6618 -3.9096
                CHANNELS 6 Xposition Yposition Zposition Zrotation Xrotation Yrotation
                JOINT lPinky2
                {
                  OFFSET 3.2119 0 0
                  CHANNELS 6 Xposition Yposition Zposition Zrotation Xrotation Yrotation
                  JOINT lPinky3
                  {
                    OFFSET 1.924 0 0
                    CHANNELS 6 Xposition Yposition Zposition Zrotation Xrotation Yrotation
                    End Site
                    {
                      OFFSET 1.7829 0 0
                    }
                  }
                }
              }
            }
          }
        }
      }
      JOINT rCollar
      {
        OFFSET -4.0677 26.6109 -1.1234
        CHANNELS 6 Xposition Yposition Zposition Zrotation Xrotation Yrotation
        JOINT rShldr
        {
          OFFSET -14.1772 0 0
          CHANNELS 6 Xposition Yposition Zposition Zrotation Xrotation Yrotation
          JOINT rForeArm
          {
            OFFSET -26.1234 0 0
            CHANNELS 6 Xposition Yposition Zposition Zrotation Xrotation Yrotation
            JOINT rHand
            {
              OFFSET -27.7188 0 0
              CHANNELS 6 Xposition Yposition Zposition Zrotation Xrotation Yrotation
              JOINT rThumb1
              {
                OFFSET -2.2979 -0.4684 1.8313
                CHANNELS 6 Xposition Yposition Zposition Zrotation Xrotation Yrotation
                JOINT rThumb2
                {
                  OFFSET -5.2953 0 0
                  CHANNELS 6 Xposition Yposition Zposition Zrotation Xrotation Yrotation
                  JOINT rThumb3
                  {
                    OFFSET -3.0181 0 0
                    CHANNELS 6 Xposition Yposition Zposition Zrotation Xrotation Yrotation
                    End Site
                    {
                      OFFSET -2.6294 0 0
                    }
                  }
                }
              }
              JOINT rIndex1
              {
                OFFSET -9.3793 0.2991 2.5924
                CHANNELS 6 Xposition Yposition Zposition Zrotation Xrotation Yrotation
                JOINT rIndex2
                {
                  OFFSET -4.3461 0 0
                  CHANNELS 6 Xposition Yposition Zposition Zrotation Xrotation Yrotation
                  JOINT rIndex3
                  {
                    OFFSET -2.1666 0 0
                    CHANNELS 6 Xposition Yposition Zposition Zrotation Xrotation Yrotation
                    End Site
                    {
                      OFFSET -2.2048 0 0
                    }
                  }
                }
              }
              JOINT rMid1
              {
                OFFSET -9.4769 0.8376 0.2947
                CHANNELS 6 Xposition Yposition Zposition Zrotation Xrotation Yrotation
                JOINT rMid2
                {
                  OFFSET -4.772 0 0
                  CHANNELS 6 Xposition Yposition Zposition Zrotation Xrotation Yrotation
                  JOINT rMid3
                  {
                    OFFSET -2.8722 0 0
                    CHANNELS 6 Xposition Yposition Zposition Zrotation Xrotation Yrotation
                    End Site
                    {
                      OFFSET -2.0959 0 0
                    }
                  }
                }
              }
              JOINT rRing1
              {
                OFFSET -8.6586 1.0176 -1.7016
                CHANNELS 6 Xposition Yposition Zposition Zrotation Xrotation Yrotation
                JOINT rRing2
                {
                  OFFSET -4.5461 0 0
                  CHANNELS 6 Xposition Yposition Zposition Zrotation Xrotation Yrotation
                  JOINT rRing3
                  {
                    OFFSET -2.506 0 0
                    CHANNELS 6 Xposition Yposition Zposition Zrotation Xrotation Yrotation
                    End Site
                    {
                      OFFSET -2.2023 0 0
                    }
                  }
                }
              }
              JOINT rPinky1
              {
                OFFSET -7.6901 0.6618 -3.9096
                CHANNELS 6 Xposition Yposition Zposition Zrotation Xrotation Yrotation
                JOINT rPinky2
                {
                  OFFSET -3.2119 0 0
                  CHANNELS 6 Xposition Yposition Zposition Zrotation Xrotation Yrotation
                  JOINT rPinky3
                  {
                    OFFSET -1.924 0 0
                    CHANNELS 6 Xposition Yposition Zposition Zrotation Xrotation Yrotation
                    End Site
                    {
                      OFFSET -1.7829 0 0
                    }
                  }
                }
              }
            }
          }
        }
      }
    }
  }
  JOINT lThigh
  {
    OFFSET 8.7379 -0.0029 0.0005
    CHANNELS 6 Xposition Yposition Zposition Zrotation Xrotation Yrotation
    JOINT lShin
    {
      OFFSET 0 -46.6676 0
      CHANNELS 6 Xposition Yposition Zposition Zrotation Xrotation Yrotation
      JOINT lFoot
      {
        OFFSET 0 -40.1476 0
        CHANNELS 6 Xposition Yposition Zposition Zrotation Xrotation Yrotation
        JOINT lToes
        {
          OFFSET 0 -8.8846 14.2294
          CHANNELS 6 Xposition Yposition Zposition Zrotation Xrotation Yrotation
          End Site
          {
            OFFSET 0 0 6.296
          }
        }
      }
    }
  }
  JOINT rThigh
  {
    OFFSET -8.7379 0.0029 -0.0005
    CHANNELS 6 Xposition Yposition Zposition Zrotation Xrotation Yrotation
    JOINT rShin
    {
      OFFSET 0 -46.6676 0
      CHANNELS 6 Xposition Yposition Zposition Zrotation Xrotation Yrotation
      JOINT rFoot
      {
        OFFSET 0 -40.1476 0
        CHANNELS 6 Xposition Yposition Zposition Zrotation Xrotation Yrotation
        JOINT rToes
        {
          OFFSET 0 -8.8846 14.2294
          CHANNELS 6 Xposition Yposition Zposition Zrotation Xrotation Yrotation
          End Site
          {
            OFFSET 0 0 6.296
          }
        }
      }
    }
  }
}
MOTION
Frames:	4
Frame Time:	0.0333333
-0.419052 39.809 0.161344 -5.75706 -12.507 -42.6018 -4.44089e-16 7.2397 0 -2.70788 13.5443 6.79217 -1.11022e-16 16.546 0 -7.57831 28.7918 11.4202 1.11022e-15 34.2149 0 2.752 30.1509 1.8697 0 6.2923 0 4.39115 -35.7392 21.0314 4.0639 26.6115 -1.1234 4.99363 -8.49217 -2.34275 14.1772 0 -7.10543e-15 -71.6816 6.99201 -55.6972 26.1234 -7.10543e-15 -7.10543e-15 -105.855 -13.4105 -93.0405 27.7188 -7.10543e-15 3.55271e-15 9.21388 -28.159 5.29783 2.2979 -0.4685 1.8313 37.184 70.9488 -65.392 5.2953 -3.55271e-15 0 -13.655 2.43914 4.23129 3.0181 -7.10543e-15 7.10543e-15 40.575 -4.26209 10.4488 9.3793 0.2991 2.5924 -15.7189 8.2617 2.10857 4.3461 -1.42109e-14 -1.06581e-14 -27.9756 -1.11866 5.59658 2.1666 -3.55271e-15 0 -30.2284 -1.57778 5.42756 9.4769 0.8376 0.2947 -15.5574 6.19104 1.80127 4.772 7.10543e-15 0 -44.2332 -4.15798 10.4286 2.8722 -3.55271e-15 0 -38.4625 -3.11873 10.6457 8.6586 1.0176 -1.7016 -12.8095 4.05758 0.0154753 4.5461 0 7.10543e-15 -68.2419 -4.98723 7.35472 2.506 0 3.55271e-15 -26.1841 0.226371 12.1003 7.6901 0.6618 -3.9096 -1.69591 -16.7036 -0.578561 3.2119 -1.42109e-14 0 -48.2121 -6.75383 15.0249 1.924 1.77636e-15 7.10543e-15 -25.7169 -1.92459 10.2066 -4.0677 26.6109 -1.1234 -9.13031 -10.8295 -10.6773 -14.1772 2.84217e-14 0 41.0514 41.8311 33.5991 -26.1234 -1.42109e-14 0 27.0224 0.374201 118.452 -27.7188 7.10543e-15 1.42109e-14 -9.57452 -11.0328 12.6155 -2.2979 -0.4684 1.8313 -92.2023 72.3373 115.748 -5.2953 1.42109e-14 -7.10543e-15 20.806 -0.164374 -7.80926 -3.0181 -1.42109e-14 -7.10543e-15 7.44353 -1.87409 -23.1505 -9.3793 0.2991 2.5924 -0.483197 -1.4043 -4.46204 -4.3461 1.77636e-15 0 11.3885 0.0663342 -2.10806 -2.1666 0 1.42109e-14 35.2115 -1.89997 -5.61242 -9.4769 0.8376 0.2947 -5.7445 -0.492513 -10.345 -4.772 1.77636e-15 0 99.6663 -15.9162 -13.533 -2.8722 3.55271e-15 2.84217e-14 64.9769 -7.76868 -13.6635 -8.6586 1.0176 -1.7016 4.03543 -11.2401 -9.54018 -4.5461 0 0 113.305 -9.33451 -6.15035 -2.506 0 -1.42109e-14 71.4335 -4.52062 -7.1353 -7.6901 0.6618 -3.9096 -3.28617 -26.781 -8.59917 -3.2119 -7.10543e-15 0 88.1866 -18.3453 -18.9248 -1.924 -3.55271e-15 0 68.3114 -11.8989 -18.9734 8.7379 -0.0029 0.0005 76.384 -50.9052 66.4112 0 -46.6676 0 177.833 52.6218 -160.854 8.88178e-16 -40.1476 3.55271e-15 -20.0217 -27.8298 -1.72619 1.77636e-15 -8.8846 14.2294 0.0001 -2.48481e-17 -0 -8.7379 0.0029 -0.0005 -23.2388 -5.10578 25.1355 0 -46.6676 8.88178e-16 -167.914 55.9674 157.914 0 -40.1476 0 -3.2839 -46.6162 -6.28137 3.55271e-15 -8.8846 14.2294 -1.76556e-31 3.18055e-15 3.18055e-15 
-0.911861 40.4733 -0.107904 -4.25015 -12.4207 -37.1671 -4.44089e-16 7.2397 1.77636e-15 -2.37052 13.322 7.44137 0 16.546 -2.22045e-16 -6.76955 28.3666 12.1184 -2.22045e-16 34.2149 7.10543e-15 2.47181 30.1089 2.05375 0 6.2923 1.42109e-14 1.67843 -36.1077 24.7754 4.0639 26.6115 -1.1234 5.02874 -8.4424 -2.20099 14.1772 2.84217e-14 0 -75.9915 9.97406 -55.8131 26.1234 0 0 -103.69 -13.4229 -92.5152 27.7188 0 7.10543e-15 12.8914 -24.9855 8.56271 2.2979 -0.4685 1.8313 37.184 70.9488 -65.392 5.2953 3.55271e-15 7.10543e-15 -13.655 2.43914 4.23129 3.0181 0 0 40.575 -4.26209 10.4488 9.3793 0.2991 2.5924 -15.7189 8.2617 2.10857 4.3461 7.10543e-15 3.55271e-15 -27.9756 -1.11866 5.59658 2.1666 3.55271e-15 0 -30.2284 -1.57778 5.42756 9.4769 0.8376 0.2947 -15.5574 6.19104 1.80127 4.772 7.10543e-15 0 -44.2332 -4.15798 10.4286 2.8722 0 0 -38.4625 -3.11873 10.6457 8.6586 1.0176 -1.7016 -12.8095 4.05758 0.0154753 4.5461 -1.42109e-14 0 -68.2419 -4.98723 7.35472 2.506 0 0 -26.1841 0.226371 12.1003 7.6901 0.6618 -3.9096 -1.69591 -16.7036 -0.578561 3.2119 0 0 -48.2121 -6.75383 15.0249 1.924 -1.77636e-15 0 -25.7169 -1.92459 10.2066 -4.0677 26.6109 -1.1234 -8.83827 -10.3912 -10.0983 -14.1772 -1.42109e-14 0 49.4479 38.5765 24.4967 -26.1234 -7.10543e-15 -7.10543e-15 24.3744 4.78843 119.862 -27.7188 0 0 -10.1599 -11.3028 11.8231 -2.2979 -0.4684 1.8313 -92.2023 72.3373 115.748 -5.2953 7.10543e-15 0 20.806 -0.164374 -7.80926 -3.0181 -2.84217e-14 0 7.44353 -1.87409 -23.1505 -9.3793 0.2991 2.5924 -0.483197 -1.4043 -4.46204 -4.3461 3.55271e-15 -1.42109e-14 11.3885 0.0663342 -2.10806 -2.1666 0 -1.42109e-14 35.2115 -1.89997 -5.61242 -9.4769 0.8376 0.2947 -5.7445 -0.492513 -10.345 -4.772 3.55271e-15 0 99.6663 -15.9162 -13.533 -2.8722 0 1.42109e-14 64.9769 -7.76868 -13.6635 -8.6586 1.0176 -1.7016 4.03543 -11.2401 -9.54018 -4.5461 -5.32907e-15 0 113.305 -9.33451 -6.15035 -2.506 0 -1.42109e-14 71.4335 -4.52062 -7.1353 -7.6901 0.6618 -3.9096 -3.28617 -26.781 -8.59917 -3.2119 -7.10543e-15 0 88.1866 -18.3453 -18.9248 -1.924 -3.55271e-15 0 68.3114 -11.8989 -18.9734 8.7379 -0.0029 0.0005 76.1279 -54.3932 68.6502 0 -46.6676 7.10543e-15 177.258 54.257 -162.262 1.77636e-15 -40.1476 3.55271e-15 -16.7048 -28.0633 0.246553 -1.77636e-15 -8.8846 14.2294 0.0001 4.96962e-17 -3.18055e-15 -8.7379 0.0029 -0.0005 -23.5327 -2.70921 24.734 -3.55271e-15 -46.6676 1.77636e-15 -175.662 57.5805 165.577 0 -40.1476 -1.77636e-15 -2.96551 -46.245 -6.36805 0 -8.8846 14.2294 -1.54487e-31 -3.18055e-15 -2.78299e-15 
-2.01143 41.4921 -0.917158 -1.46963 -11.7177 -29.6209 -4.44089e-16 7.2397 0 -1.59931 12.6594 7.78595 -4.44089e-16 16.546 -4.44089e-16 -4.80393 27.1004 11.9454 -8.88178e-16 34.2149 -7.10543e-15 1.92609 30.034 2.42458 1.77636e-15 6.2923 -1.42109e-14 -2.76567 -36.8869 34.235 4.0639 26.6115 -1.1234 5.06531 -8.38967 -2.05253 14.1772 0 0 -77.8461 12.0651 -57.1055 26.1234 0 -7.10543e-15 -105.432 -15.1756 -93.4191 27.7188 -7.10543e-15 -3.55271e-15 14.7755 -21.2982 10.3956 2.2979 -0.4685 1.8313 37.184 70.9488 -65.392 5.2953 -7.10543e-15 -1.42109e-14 -13.655 2.43914 4.23129 3.0181 0 0 40.575 -4.26209 10.4488 9.3793 0.2991 2.5924 -15.7189 8.2617 2.10857 4.3461 1.42109e-14 0 -27.9756 -1.11866 5.59658 2.1666 0 7.10543e-15 -30.2284 -1.57778 5.42756 9.4769 0.8376 0.2947 -15.5574 6.19104 1.80127 4.772 -7.10543e-15 0 -44.2332 -4.15798 10.4286 2.8722 -3.55271e-15 0 -38.4625 -3.11873 10.6457 8.6586 1.0176 -1.7016 -12.8095 4.05758 0.0154753 4.5461 1.42109e-14 0 -68.2419 -4.98723 7.35472 2.506 0 7.10543e-15 -26.1841 0.226371 12.1003 7.6901 0.6618 -3.9096 -1.69591 -16.7036 -0.578561 3.2119 1.42109e-14 3.55271e-15 -48.2121 -6.75383 15.0249 1.924 0 -7.10543e-15 -25.7169 -1.92459 10.2066 -4.0677 26.6109 -1.1234 -8.35426 -9.53621 -9.15474 -14.1772 0 3.55271e-15 53.9684 35.7461 19.5866 -26.1234 0 0 22.749 7.05167 121.859 -27.7188 0 -2.84217e-14 -11.7338 -11.1031 9.69147 -2.2979 -0.4684 1.8313 -92.2023 72.3373 115.748 -5.2953 1.42109e-14 0 20.806 -0.164374 -7.80926 -3.0181 -1.42109e-14 3.55271e-15 7.44353 -1.87409 -23.1505 -9.3793 0.2991 2.5924 -0.483197 -1.4043 -4.46204 -4.3461 -5.32907e-15 -1.42109e-14 11.3885 0.0663342 -2.10806 -2.1666 -1.77636e-15 0 35.2115 -1.89997 -5.61242 -9.4769 0.8376 0.2947 -5.7445 -0.492513 -10.345 -4.772 1.77636e-15 0 99.6663 -15.9162 -13.533 -2.8722 -7.10543e-15 -1.42109e-14 64.9769 -7.76868 -13.6635 -8.6586 1.0176 -1.7016 4.03543 -11.2401 -9.54018 -4.5461 -1.77636e-15 -1.42109e-14 113.305 -9.33451 -6.15035 -2.506 0 0 71.4335 -4.52062 -7.1353 -7.6901 0.6618 -3.9096 -3.28617 -26.781 -8.59917 -3.2119 0 1.42109e-14 88.1866 -18.3453 -18.9248 -1.924 3.55271e-15 0 68.3114 -11.8989 -18.9734 8.7379 -0.0029 0.0005 76.2309 -59.1995 72.1043 -1.77636e-15 -46.6676 0 176.334 57.3009 -164.037 0 -40.1476 -7.10543e-15 -12.8598 -26.7964 2.27642 -1.77636e-15 -8.8846 14.2294 0.0001 1.98785e-16 -3.18055e-15 -8.7379 0.0029 -0.0005 -23.2295 -0.334229 23.0557 0 -46.6676 0 173.829 58.2946 175.268 0 -40.1476 1.77636e-15 -2.56666 -45.7455 -6.77938 0 -8.8846 14.2294 -9.93129e-32 1.59028e-15 3.57812e-15 
-3.6569 42.5282 -2.06526 1.03156 -10.8783 -22.6791 -2.22045e-16 7.2397 -8.88178e-16 -0.795726 12.0343 7.92484 1.11022e-16 16.546 0 -2.72606 25.8945 11.5416 8.88178e-16 34.2149 -7.10543e-15 1.33648 29.9631 2.83356 1.77636e-15 6.2923 -1.42109e-14 -6.64606 -37.8608 43.0924 4.0639 26.6115 -1.1234 5.10451 -8.33305 -1.89253 14.1772 0 0 -78.5649 12.7729 -57.7745 26.1234 7.10543e-15 7.10543e-15 -106.193 -16.3532 -93.9657 27.7188 0 3.55271e-15 14.6998 -20.8174 10.5326 2.2979 -0.4685 1.8313 37.184 70.9488 -65.392 5.2953 3.55271e-15 0 -13.655 2.43914 4.23129 3.0181 -7.10543e-15 7.10543e-15 40.575 -4.26209 10.4488 9.3793 0.2991 2.5924 -15.7189 8.2617 2.10857 4.3461 0 3.55271e-15 -27.9756 -1.11866 5.59658 2.1666 3.55271e-15 -3.55271e-15 -30.2284 -1.57778 5.42756 9.4769 0.8376 0.2947 -15.5574 6.19104 1.80127 4.772 -7.10543e-15 -3.55271e-15 -44.2332 -4.15798 10.4286 2.8722 -7.10543e-15 0 -38.4625 -3.11873 10.6457 8.6586 1.0176 -1.7016 -12.8095 4.05758 0.0154753 4.5461 0 3.55271e-15 -68.2419 -4.98723 7.35472 2.506 -7.10543e-15 0 -26.1841 0.226371 12.1003 7.6901 0.6618 -3.9096 -1.69591 -16.7036 -0.578561 3.2119 0 3.55271e-15 -48.2121 -6.75383 15.0249 1.924 -3.55271e-15 -7.10543e-15 -25.7169 -1.92459 10.2066 -4.0677 26.6109 -1.1234 -7.97882 -9.07139 -8.23626 -14.1772 1.42109e-14 0 53.6064 35.3803 19.0074 -26.1234 0 7.10543e-15 22.9634 6.45095 123.63 -27.7188 0 1.42109e-14 -12.1302 -10.299 7.63115 -2.2979 -0.4684 1.8313 -92.2023 72.3373 115.748 -5.2953 -7.10543e-15 0 20.806 -0.164374 -7.80926 -3.0181 1.42109e-14 -7.10543e-15 7.44353 -1.87409 -23.1505 -9.3793 0.2991 2.5924 -0.483197 -1.4043 -4.46204 -4.3461 -1.77636e-15 1.42109e-14 11.3885 0.0663342 -2.10806 -2.1666 -1.77636e-15 0 35.2115 -1.89997 -5.61242 -9.4769 0.8376 0.2947 -5.7445 -0.492513 -10.345 -4.772 0 -1.42109e-14 99.6663 -15.9162 -13.533 -2.8722 0 -1.42109e-14 64.9769 -7.76868 -13.6635 -8.6586 1.0176 -1.7016 4.03543 -11.2401 -9.54018 -4.5461 3.55271e-15 0 113.305 -9.33451 -6.15035 -2.506 0 0 71.4335 -4.52062 -7.1353 -7.6901 0.6618 -3.9096 -3.28617 -26.781 -8.59917 -3.2119 -7.10543e-15 -1.42109e-14 88.1866 -18.3453 -18.9248 -1.924 0 -1.42109e-14 68.3114 -11.8989 -18.9734 8.7379 -0.0029 0.0005 77.9054 -62.547 77.0343 -8.88178e-16 -46.6676 1.42109e-14 174.387 61.0578 -165.453 0 -40.1476 3.55271e-15 -9.45461 -23.3192 2.54782 0 -8.8846 14.2294 0.0001 3.97569e-16 3.18055e-15 -8.7379 0.0029 -0.0005 -21.7751 1.55452 20.0083 -3.55271e-15 -46.6676 -4.44089e-16 165.91 57.9408 -178.578 0 -40.1476 0 -2.3135 -45.2519 -7.39914 3.55271e-15 -8.8846 14.2294 7.95139e-16 1.59028e-15 1.21259e-14 
